<svg id="Capa_1" data-name="Capa 1" xmlns="http://www.w3.org/2000/svg" xmlns:xlink="http://www.w3.org/1999/xlink" viewBox="0 0 1392.77 597.66"><defs><style>.cls-1{fill:url(#Degradado_sin_nombre_2);}.cls-2{fill:url(#radial-gradient);}.cls-3{fill:url(#New_Gradient_Swatch_3);}.cls-4{fill:#fff;}</style><linearGradient id="Degradado_sin_nombre_2" x1="1258.22" y1="3662.01" x2="1410.96" y2="3662.01" gradientTransform="translate(-3479.14 1632.65) rotate(-90)" gradientUnits="userSpaceOnUse"><stop offset="0" stop-color="#ec00e1"/><stop offset="1" stop-color="#00deed"/></linearGradient><radialGradient id="radial-gradient" cx="1258.22" cy="3604.93" r="151.43" gradientTransform="translate(-3479.14 1632.65) rotate(-90)" gradientUnits="userSpaceOnUse"><stop offset="0" stop-color="#67c5e3"/><stop offset="0.16" stop-color="#63bcde"/><stop offset="0.43" stop-color="#57a4d0"/><stop offset="0.77" stop-color="#447cb9"/><stop offset="1" stop-color="#355da7"/></radialGradient><linearGradient id="New_Gradient_Swatch_3" x1="1279.77" y1="3705.57" x2="1410.96" y2="3705.57" gradientTransform="translate(-3479.14 1632.65) rotate(-90)" gradientUnits="userSpaceOnUse"><stop offset="0" stop-color="#00deed"/><stop offset="1" stop-color="#ec00e1"/></linearGradient></defs><title>AUTANA_LOGO</title><polygon class="cls-1" points="125.8 374.44 113.35 352.88 189.09 221.7 252.38 331.32 227.49 331.32 189.09 264.81 125.8 374.44"/><polygon class="cls-2" points="289.72 352.88 277.27 374.44 125.8 374.44 189.09 264.81 201.54 286.37 163.14 352.88 289.72 352.88"/><polygon class="cls-3" points="189.09 221.7 213.98 221.7 289.72 352.88 163.14 352.88 175.58 331.32 252.38 331.32 189.09 221.7"/><path class="cls-4" d="M374,334.84a33.63,33.63,0,0,0,13.49,13.43,41.07,41.07,0,0,0,20.13,4.79,41.62,41.62,0,0,0,20.29-4.79,33.55,33.55,0,0,0,13.54-13.43,40.54,40.54,0,0,0,4.79-20V220H470.8v94.86q0,18.5-7.89,32.75a55.4,55.4,0,0,1-22.25,22.14q-14.36,7.89-33.07,7.89t-32.91-7.89a55.46,55.46,0,0,1-22.19-22.14q-7.89-14.25-7.89-32.75V220h24.59v94.86A40.54,40.54,0,0,0,374,334.84Z"/><path class="cls-4" d="M542.05,220h119v24H614V375.69H589.38V244.05H542.05Z"/><path class="cls-4" d="M849.27,375.8H821S770.73,249,771.05,249h-.33L719.93,375.8H692.51l67.56-155.68h21.65Z"/><path class="cls-4" d="M1279.42,375.8h-28.26S1200.88,249,1201.2,249h-.33l-50.8,126.85h-27.42l67.56-155.68h21.65Z"/><polygon class="cls-4" points="921.29 375.69 945.77 375.69 945.77 297.96 921.29 256.02 921.29 375.69"/><polygon class="cls-4" points="1026.16 220.01 1026.16 333.03 949.96 220.01 921.29 220.01 1028.76 375.69 1050.64 375.69 1050.64 220.01 1026.16 220.01"/></svg>