<svg width="1206" height="156" viewBox="0 0 1206 156" fill="none" xmlns="http://www.w3.org/2000/svg">
<path d="M258.353 113.645C261.458 119.269 266.135 123.884 271.822 126.936C278.003 130.19 284.922 131.822 291.92 131.676C298.969 131.825 305.94 130.194 312.178 126.936C317.886 123.895 322.582 119.278 325.697 113.645C328.981 107.565 330.628 100.749 330.479 93.8534V0.00012207H355V93.8732C355 106.078 352.374 116.881 347.123 126.283C342.003 135.556 334.289 143.164 324.908 148.192C315.35 153.397 304.344 156 291.89 156C279.437 156 268.484 153.397 259.032 148.192C249.675 143.153 241.983 135.545 236.877 126.283C231.626 116.881 229 106.078 229 93.8732V0.00012207H253.551V93.8732C253.412 100.763 255.066 107.573 258.353 113.645V113.645Z" fill="white"/>
<path d="M427 0.00012207H546V24.0479H498.95V156H474.33V24.098H427V0.00012207Z" fill="white"/>
<path d="M775 156L746.5 156C746.5 156 696.34 28.9395 696.66 28.9395H696.33L645.5 156L618 156L685.663 0.00012207H707.347L775 156Z" fill="white"/>
<path d="M1206 156H1177.5C1177.5 156 1127.34 28.8894 1127.67 28.8894H1127.33L1076.5 156L1049 156L1116.66 0.00012207H1138.34L1206 156Z" fill="white"/>
<path d="M847 156H871V78.0558L847 36.0001V156Z" fill="white"/>
<path d="M951.87 0.00012207V113.252L875.67 0.00012207H847L954.47 156H976.35V0.00012207H951.87Z" fill="white"/>
<path d="M157 156H128.5C128.5 156 78.3447 28.8894 78.6652 28.8894H78.3347L27.5 156H0L67.659 0.00012207H89.3408L157 156Z" fill="white"/>
</svg>
