<svg width="1393" height="598" viewBox="0 0 1393 598" fill="none" xmlns="http://www.w3.org/2000/svg">
<path d="M351.4 334.84C354.509 340.522 359.194 345.186 364.89 348.27C371.081 351.559 378.011 353.208 385.02 353.06C392.08 353.211 399.063 351.562 405.31 348.27C411.027 345.197 415.731 340.532 418.85 334.84C422.139 328.696 423.789 321.808 423.64 314.84V220H448.2V314.86C448.2 327.193 445.57 338.11 440.31 347.61C435.183 356.981 427.456 364.669 418.06 369.75C408.487 375.01 397.463 377.64 384.99 377.64C372.517 377.64 361.547 375.01 352.08 369.75C342.708 364.657 335.004 356.97 329.89 347.61C324.63 338.11 322 327.193 322 314.86V220H346.59V314.86C346.451 321.823 348.107 328.704 351.4 334.84Z" fill="white"/>
<path d="M520 220H639V244H591.95V375.69H567.33V244.05H520V220Z" fill="white"/>
<path d="M867.76 375.68H839.49C839.49 375.68 789.22 248.88 789.54 248.88H789.21L738.42 375.68H711L778.56 220H800.21L867.76 375.68Z" fill="white"/>
<path d="M1298.77 375.63H1270.51C1270.51 375.63 1220.23 248.83 1220.55 248.83H1220.22L1169.42 375.68H1142L1209.56 220H1231.21L1298.77 375.63Z" fill="white"/>
<path d="M249.77 375.63H221.51C221.51 375.63 171.23 248.83 171.55 248.83H171.22L120.42 375.68H93L160.56 220H182.21L249.77 375.63Z" fill="white"/>
<path d="M940 375.67H964.48V297.94L940 256V375.67Z" fill="white"/>
<path d="M1044.87 220V333.02L968.67 220H940L1047.47 375.68H1069.35V220H1044.87Z" fill="white"/>
</svg>
